<svg id="Layer_1" data-name="Layer 1" xmlns="http://www.w3.org/2000/svg" xmlns:xlink="http://www.w3.org/1999/xlink" viewBox="0 0 178 46"><image width="144" height="204" transform="translate(3 -2.5) scale(0.25)" xlink:href="logo.png"/><path d="M50.4,17.4,46.6,28.7H42.5L38.6,17.4H42l2.6,8.1,2.5-8.1Zm5.8,0V28.7H53V17.4Zm9.1,11.3L63,24.5h-.3v4.2H59.5V17.4h5a5.2,5.2,0,0,1,2.3.5,2.9,2.9,0,0,1,1.4,1.3,3.5,3.5,0,0,1,.5,1.8,3.2,3.2,0,0,1-.6,2,4.3,4.3,0,0,1-1.9,1.3l2.6,4.4Zm-2.6-6.3h1.5a1.3,1.3,0,0,0,1-.3,1.5,1.5,0,0,0,0-1.8,1.3,1.3,0,0,0-1-.3H62.7Zm17.5-5v2.5h-3v8.8H74.1V19.9h-3V17.4Zm5.9,0v6.5a2,2,0,0,0,.4,1.4,1.4,1.4,0,0,0,1.3.5,1.5,1.5,0,0,0,1.3-.5,2,2,0,0,0,.4-1.4V17.4h3.1v6.5a5.4,5.4,0,0,1-.6,2.7,3.5,3.5,0,0,1-1.8,1.6,5.1,5.1,0,0,1-2.5.6,5.4,5.4,0,0,1-2.5-.6,4.3,4.3,0,0,1-1.7-1.6,5.4,5.4,0,0,1-.6-2.7V17.4Zm17,9.4h-4l-.6,1.9H95.2l4.1-11.3h3.6L107,28.7h-3.3Zm-.8-2.4-1.2-3.6-1.2,3.6Zm10.5,1.9h3.5v2.4h-6.6V17.4h3.1ZM128,28.8a5.3,5.3,0,0,1-3.2-.9,4,4,0,0,1-1.4-2.7h3.4c0,.4.1.7.3.8a1.1,1.1,0,0,0,.8.3l.7-.2a.9.9,0,0,0,.3-.6.8.8,0,0,0-.5-.8l-1.5-.6-1.8-.7a3.5,3.5,0,0,1-1.1-1,2.3,2.3,0,0,1-.5-1.7,3.6,3.6,0,0,1,.5-1.9,4.4,4.4,0,0,1,1.5-1.2,5.4,5.4,0,0,1,2.2-.4,4.8,4.8,0,0,1,3.1.9,3.6,3.6,0,0,1,1.3,2.6h-3.4a.8.8,0,0,0-.3-.7,1.1,1.1,0,0,0-.8-.3l-.6.2a.8.8,0,0,0-.2.6.9.9,0,0,0,.3.6l.6.4,1.1.4,1.7.7a2.9,2.9,0,0,1,1.2,1,2.2,2.2,0,0,1,.5,1.6,3.2,3.2,0,0,1-.5,1.9,3.3,3.3,0,0,1-1.4,1.2A5.6,5.6,0,0,1,128,28.8Zm23.2-11.4-2.8,11.3h-3.8L143,21.8l-1.6,6.9h-3.8l-2.8-11.3h3.4l1.3,7.7,1.8-7.7h3.5l1.7,7.6,1.3-7.6Zm10.1,9.4h-4l-.7,1.9h-3.3l4.2-11.3h3.6l4.1,11.3h-3.3Zm-.8-2.4-1.2-3.6-1.2,3.6Zm16.2-3.2a3.8,3.8,0,0,1-1.9,3.2,5.2,5.2,0,0,1-2.3.5h-1.6v3.8h-3.1V17.4h4.7a5.2,5.2,0,0,1,2.3.5,2.9,2.9,0,0,1,1.4,1.3A4.2,4.2,0,0,1,176.7,21.2Zm-4.5,1.2c.9,0,1.3-.4,1.3-1.2s-.4-1.3-1.3-1.3h-1.3v2.5Z"/></svg>