<svg width="139" height="13" viewBox="0 0 139 13" fill="none" xmlns="http://www.w3.org/2000/svg">
<path d="M11.872 0.719999L7.984 12H3.968L0.064 0.719999H3.424L5.984 8.864L8.528 0.719999H11.872ZM17.5851 0.719999V12H14.4491V0.719999H17.5851ZM26.683 12L24.443 7.84H24.107V12H20.971V0.719999H25.915C26.8217 0.719999 27.5897 0.879999 28.219 1.2C28.8483 1.50933 29.323 1.94133 29.643 2.496C29.963 3.04 30.123 3.65333 30.123 4.336C30.123 5.104 29.9097 5.78133 29.483 6.368C29.067 6.944 28.4537 7.35467 27.643 7.6L30.187 12H26.683ZM24.107 5.696H25.659C26.0857 5.696 26.4057 5.59467 26.619 5.392C26.8323 5.18933 26.939 4.896 26.939 4.512C26.939 4.14933 26.827 3.86667 26.603 3.664C26.3897 3.45067 26.075 3.344 25.659 3.344H24.107V5.696ZM41.6451 0.719999V3.216H38.6371V12H35.5011V3.216H32.5251V0.719999H41.6451ZM47.4774 0.719999V7.264C47.4774 7.872 47.616 8.34133 47.8934 8.672C48.1814 9.00267 48.6134 9.168 49.1894 9.168C49.7654 9.168 50.1974 9.00267 50.4854 8.672C50.784 8.33067 50.9334 7.86133 50.9334 7.264V0.719999H54.0694V7.264C54.0694 8.29867 53.8507 9.184 53.4134 9.92C52.976 10.6453 52.3787 11.1947 51.6214 11.568C50.8747 11.9307 50.0427 12.112 49.1254 12.112C48.208 12.112 47.3867 11.9307 46.6614 11.568C45.9467 11.1947 45.3814 10.6453 44.9654 9.92C44.56 9.19467 44.3574 8.30933 44.3574 7.264V0.719999H47.4774ZM64.532 10.16H60.532L59.924 12H56.628L60.74 0.719999H64.356L68.452 12H65.14L64.532 10.16ZM63.748 7.76L62.532 4.112L61.332 7.76H63.748ZM74.2101 9.6H77.7141V12H71.0741V0.719999H74.2101V9.6ZM89.452 12.112C88.14 12.112 87.0627 11.8027 86.22 11.184C85.3773 10.5547 84.924 9.65867 84.86 8.496H88.204C88.236 8.89067 88.3533 9.17867 88.556 9.36C88.7587 9.54133 89.02 9.632 89.34 9.632C89.628 9.632 89.8627 9.56267 90.044 9.424C90.236 9.27467 90.332 9.072 90.332 8.816C90.332 8.48533 90.1773 8.22933 89.868 8.048C89.5587 7.86667 89.0573 7.664 88.364 7.44C87.628 7.19467 87.0307 6.96 86.572 6.736C86.124 6.50133 85.7293 6.16533 85.388 5.728C85.0573 5.28 84.892 4.69867 84.892 3.984C84.892 3.25867 85.0733 2.64 85.436 2.128C85.7987 1.60533 86.3 1.21067 86.94 0.943999C87.58 0.677333 88.3053 0.544 89.116 0.544C90.428 0.544 91.4733 0.853333 92.252 1.472C93.0413 2.08 93.4627 2.93867 93.516 4.048H90.108C90.0973 3.70667 89.9907 3.45067 89.788 3.28C89.596 3.10933 89.3453 3.024 89.036 3.024C88.8013 3.024 88.6093 3.09333 88.46 3.232C88.3107 3.37067 88.236 3.568 88.236 3.824C88.236 4.03733 88.316 4.224 88.476 4.384C88.6467 4.53333 88.8547 4.66667 89.1 4.784C89.3453 4.89067 89.708 5.02933 90.188 5.2C90.9027 5.44533 91.4893 5.69067 91.948 5.936C92.4173 6.17067 92.8173 6.50667 93.148 6.944C93.4893 7.37067 93.66 7.91467 93.66 8.576C93.66 9.248 93.4893 9.85067 93.148 10.384C92.8173 10.9173 92.332 11.3387 91.692 11.648C91.0627 11.9573 90.316 12.112 89.452 12.112ZM112.606 0.719999L109.838 12H105.982L104.43 5.088L102.846 12H98.9899L96.2539 0.719999H99.6459L100.958 8.432L102.734 0.719999H106.174L107.902 8.368L109.214 0.719999H112.606ZM122.673 10.16H118.673L118.065 12H114.769L118.881 0.719999H122.497L126.593 12H123.281L122.673 10.16ZM121.889 7.76L120.673 4.112L119.473 7.76H121.889ZM138.127 4.48C138.127 5.16267 137.967 5.78667 137.647 6.352C137.337 6.90667 136.863 7.35467 136.223 7.696C135.593 8.02667 134.82 8.192 133.903 8.192H132.351V12H129.215V0.719999H133.903C134.809 0.719999 135.577 0.879999 136.207 1.2C136.847 1.52 137.327 1.96267 137.647 2.528C137.967 3.09333 138.127 3.744 138.127 4.48ZM133.599 5.696C134.484 5.696 134.927 5.29067 134.927 4.48C134.927 3.65867 134.484 3.248 133.599 3.248H132.351V5.696H133.599Z" fill="black"/>
</svg>
