<svg width="116" height="15" viewBox="0 0 116 15" fill="none" xmlns="http://www.w3.org/2000/svg">
<g clip-path="url(#clip0_16968_55914)">
<path fill-rule="evenodd" clip-rule="evenodd" d="M9.94128 0.911621V5.56804H4.31238V0.912831H0.296875V14.5718H4.31238V9.74715H9.94128V14.5694H13.9571V0.911621H9.94128Z" fill="white"/>
<path fill-rule="evenodd" clip-rule="evenodd" d="M41.0092 0.911621V0.912831H39V14.5718H43.0616V14.5706H53.7985V10.6919H43.0616V4.79029H53.7958V0.911621H41.0092Z" fill="white"/>
<path fill-rule="evenodd" clip-rule="evenodd" d="M111.247 0.911621V6.78462L105.643 0.911621L105.632 0.920819V0.911621H101.609V14.5718H105.632V8.50492L111.247 14.5718H115.27V0.911621H111.247Z" fill="white"/>
<path fill-rule="evenodd" clip-rule="evenodd" d="M72.3349 0.911621V5.56068H65.9939V0.914041H61.7656V14.5708H65.9939V9.73813H72.3315V14.5718H76.5598V9.60551H72.6164L76.5642 5.56068V0.911621H72.3349Z" fill="white"/>
<path fill-rule="evenodd" clip-rule="evenodd" d="M20.057 0.912831V0.911621H32.6017V0.912831H33.3086V14.5706H29.3241V11.6134H23.6332V14.5718H19.6484V0.912831H20.057ZM29.3241 7.57785H23.6332V4.79029H29.3241V7.57785Z" fill="white"/>
<path fill-rule="evenodd" clip-rule="evenodd" d="M83.372 0.911621V0.912589H82.2578V14.5681H83.3474V14.5718H95.893V10.6975H86.2431V9.67926H95.8948V5.80467H86.2431V4.78618H95.918V0.911621H83.372Z" fill="white"/>
</g>
<defs>
<clipPath id="clip0_16968_55914">
<rect width="115.461" height="13.8228" fill="white" transform="translate(0.296875 0.911621)"/>
</clipPath>
</defs>
</svg>
