<svg width="25" height="25" viewBox="0 0 25 25" fill="none" xmlns="http://www.w3.org/2000/svg">
<ellipse cx="11.2682" cy="13.9678" rx="11.2682" ry="10.9711" fill="black"/>
<ellipse cx="12.2341" cy="13.0275" rx="11.5901" ry="11.2845" fill="#BC3BD9"/>
<ellipse cx="12.2331" cy="13.0275" rx="10.5823" ry="10.3033" fill="#081838"/>
<g clip-path="url(#clip0_13285_40759)">
<path d="M10.3161 6.07542L10.7201 9.64307L8.89786 14.184L6.56911 16.1877L6.51029 12.2401L10.3161 6.07542Z" fill="#FEC4FF"/>
<path d="M10.3158 6.07535L15.0515 5.84425L18.1211 10.9535L10.7199 9.64301L10.3158 6.07535Z" fill="#FF96FD"/>
<path d="M18.1208 10.9535L15.4625 14.6103L11.0885 16.0409L8.89737 14.184L10.7197 9.64304L18.1208 10.9535Z" fill="#F269FD"/>
<path d="M8.89802 14.1841L11.0891 16.0409L9.91889 20.2931L6.56928 16.1877L8.89802 14.1841Z" fill="#BC3BD9"/>
<path d="M15.464 14.6104L16.4045 17.1956L17.7028 14.6L18.1223 10.9536L15.464 14.6104Z" fill="#BC3BD9"/>
<path d="M15.4637 14.6103L16.4042 17.1955L9.91943 20.2932L11.0897 16.0409L15.4637 14.6103Z" fill="#8F1BB8"/>
</g>
<g clip-path="url(#clip1_13285_40759)">
<path d="M9.95791 20.3023C9.87344 20.2809 9.7983 20.2337 9.74367 20.1675L6.52292 16.294C6.46663 16.2257 6.43503 16.1414 6.43299 16.0541L6.34964 12.3136C6.34767 12.2399 6.3671 12.1672 6.40572 12.1038L9.97624 6.2394C10.0102 6.18367 10.0578 6.13694 10.1148 6.10335C10.1719 6.06976 10.2366 6.05034 10.3033 6.04681L14.8068 5.80004C14.8813 5.79583 14.9557 5.81159 15.0217 5.84561C15.0877 5.87962 15.1429 5.93058 15.1812 5.99291L18.1424 10.8196C18.1882 10.8939 18.2073 10.9808 18.1967 11.0667L17.8265 14.5278C17.8223 14.5727 17.8106 14.6166 17.7917 14.6578L16.5776 17.1255C16.539 17.2064 16.4731 17.272 16.3907 17.3116L10.2461 20.2866C10.1554 20.3262 10.0527 20.3318 9.95791 20.3023ZM7.24475 15.9027L10.1713 19.4228L15.8974 16.6497L17.0212 14.3669L17.3696 11.1046L14.6034 6.59697L10.5638 6.81888L7.16175 12.4085L7.24475 15.9027Z" fill="#2B0E0E"/>
<path d="M10.3256 6.43272L10.7388 9.81213L9.04124 14.1296L6.84207 16.042L6.75421 12.3003L10.3256 6.43272Z" fill="#FEC4FF"/>
<path d="M10.3246 6.43281L14.828 6.18603L17.7892 11.0126L10.7378 9.81222L10.3246 6.43281Z" fill="#FF96FD"/>
<path d="M17.7891 11.0126L15.2894 14.4955L11.1395 15.8775L9.04014 14.1296L10.7377 9.81215L17.7891 11.0126Z" fill="#F269FD"/>
<path d="M9.04106 14.1297L11.1405 15.8775L10.0612 19.9163L6.84189 16.042L9.04106 14.1297Z" fill="#BC3BD9"/>
<path d="M15.2891 14.4954L16.2046 16.9412L17.419 14.4725L17.7889 11.0125L15.2891 14.4954Z" fill="#BC3BD9"/>
<path d="M15.2904 14.4955L16.2058 16.9413L10.0612 19.9163L11.1405 15.8775L15.2904 14.4955Z" fill="#8F1BB8"/>
</g>
<path d="M11.7857 10.7128C11.8761 10.6666 11.9868 10.6535 12.0832 10.6899C12.6109 10.884 13.1392 11.0768 13.6668 11.2709C13.9227 11.3761 14.152 11.5467 14.3155 11.7661C14.5803 12.1046 14.6861 12.5562 14.5989 12.9731C14.5875 13.0466 14.5599 13.1162 14.5429 13.1884C14.5253 13.2488 14.4881 13.3009 14.4658 13.3595C14.4099 13.4642 14.3455 13.5654 14.2671 13.6556C14.2476 13.6772 14.2343 13.7029 14.219 13.7273C14.2166 13.7186 14.2188 13.7097 14.2203 13.7012C14.1843 13.7504 14.1377 13.7912 14.0907 13.8303C13.9865 13.9184 13.8714 13.9953 13.7452 14.0505C13.574 14.1339 13.3868 14.1878 13.1955 14.2017C12.9415 14.2255 12.6831 14.1833 12.447 14.091C12.3022 14.0383 12.1578 13.9844 12.0127 13.9323C11.892 13.8883 11.7959 13.7814 11.775 13.6566C11.7443 13.4871 11.8569 13.3015 12.0303 13.2576C12.1188 13.2291 12.2137 13.2459 12.2997 13.274C12.4443 13.3273 12.589 13.3803 12.7336 13.4332C12.8078 13.4593 12.8815 13.4916 12.9615 13.4956C13.1865 13.5237 13.4215 13.4558 13.5953 13.3142C13.7105 13.2271 13.7903 13.1042 13.8503 12.9766C13.8604 12.9444 13.866 12.9109 13.8773 12.8789C13.9291 12.6798 13.9024 12.4616 13.7972 12.2828C13.7208 12.1525 13.6084 12.0429 13.4763 11.9659C13.4354 11.9482 13.3959 11.9279 13.355 11.9109C12.8488 11.7256 12.3427 11.5401 11.8366 11.3547C11.7359 11.321 11.6524 11.2409 11.6181 11.1425C11.5573 10.9851 11.6316 10.7899 11.7857 10.7128Z" fill="white"/>
<path d="M12.3281 12.0469C12.3589 12.0543 12.3902 12.0606 12.4199 12.0716C12.6495 12.1555 12.8786 12.2402 13.1081 12.3237C13.2218 12.3614 13.3233 12.45 13.3532 12.566C13.3765 12.643 13.3689 12.7259 13.3441 12.8015C13.3081 12.8731 13.2521 12.9361 13.1813 12.9768C13.0876 13.0293 12.9701 13.0326 12.8694 12.9976C12.6368 12.9121 12.4041 12.8266 12.1713 12.7416C12.1205 12.7213 12.065 12.7182 12.0109 12.7141C11.8549 12.7022 11.6963 12.7704 11.5972 12.8878C11.557 12.936 11.52 12.9879 11.4987 13.047C11.3438 13.4444 11.1914 13.8429 11.0365 14.2404C10.9821 14.3722 10.8457 14.4692 10.6984 14.4689C10.6457 14.4717 10.5958 14.4534 10.5478 14.4345C10.4568 14.4042 10.3897 14.3257 10.3539 14.2411C10.329 14.1671 10.3186 14.0833 10.3507 14.0096C10.5038 13.6151 10.6559 13.2202 10.809 12.8256C10.8934 12.5867 11.0559 12.3756 11.2635 12.2247C11.3542 12.1663 11.4479 12.1093 11.5519 12.0763C11.799 11.9856 12.074 11.9823 12.3281 12.0469Z" fill="white"/>
<g filter="url(#filter0_f_13285_40759)">
<path d="M11.7857 10.7128C11.8761 10.6666 11.9868 10.6535 12.0832 10.6899C12.6109 10.884 13.1392 11.0768 13.6668 11.2709C13.9227 11.3761 14.152 11.5467 14.3155 11.7661C14.5803 12.1046 14.6861 12.5562 14.5989 12.9731C14.5875 13.0466 14.5599 13.1162 14.5429 13.1884C14.5253 13.2488 14.4881 13.3009 14.4658 13.3595C14.4099 13.4642 14.3455 13.5654 14.2671 13.6556C14.2476 13.6772 14.2343 13.7029 14.219 13.7273C14.2166 13.7186 14.2188 13.7097 14.2203 13.7012C14.1843 13.7504 14.1377 13.7912 14.0907 13.8303C13.9865 13.9184 13.8714 13.9953 13.7452 14.0505C13.574 14.1339 13.3868 14.1878 13.1955 14.2017C12.9415 14.2255 12.6831 14.1833 12.447 14.091C12.3022 14.0383 12.1578 13.9844 12.0127 13.9323C11.892 13.8883 11.7959 13.7814 11.775 13.6566C11.7443 13.4871 11.8569 13.3015 12.0303 13.2576C12.1188 13.2291 12.2137 13.2459 12.2997 13.274C12.4443 13.3273 12.589 13.3803 12.7336 13.4332C12.8078 13.4593 12.8815 13.4916 12.9615 13.4956C13.1865 13.5237 13.4215 13.4558 13.5953 13.3142C13.7105 13.2271 13.7903 13.1042 13.8503 12.9766C13.8604 12.9444 13.866 12.9109 13.8773 12.8789C13.9291 12.6798 13.9024 12.4616 13.7972 12.2828C13.7208 12.1525 13.6084 12.0429 13.4763 11.9659C13.4354 11.9482 13.3959 11.9279 13.355 11.9109C12.8488 11.7256 12.3427 11.5401 11.8366 11.3547C11.7359 11.321 11.6524 11.2409 11.6181 11.1425C11.5573 10.9851 11.6316 10.7899 11.7857 10.7128Z" fill="white"/>
<path d="M12.3281 12.0469C12.3589 12.0543 12.3902 12.0606 12.4199 12.0716C12.6495 12.1555 12.8786 12.2402 13.1081 12.3237C13.2218 12.3614 13.3233 12.45 13.3532 12.566C13.3765 12.643 13.3689 12.7259 13.3441 12.8015C13.3081 12.8731 13.2521 12.9361 13.1813 12.9768C13.0876 13.0293 12.9701 13.0326 12.8694 12.9976C12.6368 12.9121 12.4041 12.8266 12.1713 12.7416C12.1205 12.7213 12.065 12.7182 12.0109 12.7141C11.8549 12.7022 11.6963 12.7704 11.5972 12.8878C11.557 12.936 11.52 12.9879 11.4987 13.047C11.3438 13.4444 11.1914 13.8429 11.0365 14.2404C10.9821 14.3722 10.8457 14.4692 10.6984 14.4689C10.6457 14.4717 10.5958 14.4534 10.5478 14.4345C10.4568 14.4042 10.3897 14.3257 10.3539 14.2411C10.329 14.1671 10.3186 14.0833 10.3507 14.0096C10.5038 13.6151 10.6559 13.2202 10.809 12.8256C10.8934 12.5867 11.0559 12.3756 11.2635 12.2247C11.3542 12.1663 11.4479 12.1093 11.5519 12.0763C11.799 11.9856 12.074 11.9823 12.3281 12.0469Z" fill="white"/>
</g>
<defs>
<filter id="filter0_f_13285_40759" x="0.330566" y="0.668945" width="24.2983" height="23.8002" filterUnits="userSpaceOnUse" color-interpolation-filters="sRGB">
<feFlood flood-opacity="0" result="BackgroundImageFix"/>
<feBlend mode="normal" in="SourceGraphic" in2="BackgroundImageFix" result="shape"/>
<feGaussianBlur stdDeviation="5" result="effect1_foregroundBlur_13285_40759"/>
</filter>
<clipPath id="clip0_13285_40759">
<rect width="12.2031" height="16.2086" fill="white" transform="matrix(0.973126 0.253874 -0.263784 0.958501 8.42236 3.68298)"/>
</clipPath>
<clipPath id="clip1_13285_40759">
<rect width="11.6129" height="15.3656" fill="white" transform="matrix(0.974994 0.246988 -0.256629 0.96034 8.50391 4.17529)"/>
</clipPath>
</defs>
</svg>
